<?xml version="1.0" encoding="UTF-8"?>
<svg enable-background="new 0 0 38.1 38.1" version="1.1" viewBox="0 0 38.1 38.1" xmlns="http://www.w3.org/2000/svg">
 <style type="text/css">.st0{fill:#00A5CB;} .st1{fill:#0190B0;} .st2{fill:#FFFFFF;} .st3{fill:#F2F2F2;}</style>
 <path class="st0" d="M19.1,37.9C8.7,37.9,0.3,29.4,0.3,19S8.7,0.2,19.1,0.2"/>
 <path class="st1" d="M19.1,0.2C29.5,0.2,38,8.6,38,19s-8.5,18.8-18.9,18.8"/>
 <rect class="st2" x="8.5" y="9.6" width="5.3" height="5.3"/>
 <path class="st2" d="m16.9 27.9h2.5v-2.5h-2.5v2.5zm0.5-2h1.5v1.5h-1.5v-1.5z"/>
 <rect class="st2" x="21.9" y="25.7" width="2" height="2"/>
 <rect class="st2" x="26.2" y="25.7" width="2" height="2"/>
 <rect class="st2" x="30.6" y="25.7" width="2" height="2"/>
 <path class="st2" d="m25.3 15.4c1.7 0 3.1-1.4 3.1-3.1s-1.4-3.1-3.1-3.1-3.1 1.4-3.1 3.1 1.4 3.1 3.1 3.1zm0-5.3c1.2 0 2.1 1 2.1 2.1s-1 2.1-2.1 2.1c-1.2 0-2.1-1-2.1-2.1s0.9-2.1 2.1-2.1z"/>
 <polygon class="st2" points="8.3 18.8 12.1 18.8 12.1 24.8 13.1 24.8 13.1 18.8 17.7 18.8 17.7 24.8 18.7 24.8 18.7 18.8 22.4 18.8 22.4 24.8 23.4 24.8 23.4 18.8 26.7 18.8 26.7 24.8 27.7 24.8 27.7 18.8 31.2 18.8 31.2 24.8 32.1 24.8 32.1 18.8 32.2 18.8 32.2 17.8 18.7 17.8 18.7 12.8 21.4 12.8 21.4 11.8 15 11.8 15 12.8 17.7 12.8 17.7 17.8 7.4 17.8 7.4 18.7 7.4 18.7 7.4 24.8 8.3 24.8"/>
 <path class="st2" d="m7.8 25.2c-0.8 0-1.5 0.7-1.5 1.5s0.7 1.5 1.5 1.5 1.5-0.7 1.5-1.5-0.6-1.5-1.5-1.5zm0 2.4c-0.5 0-1-0.4-1-1 0-0.5 0.4-1 1-1 0.5 0 1 0.4 1 1s-0.4 1-1 1z"/>
 <circle class="st2" cx="12.6" cy="26.7" r="1.2"/>
</svg>
